<?xml version="1.0" ?><svg id="Layer_1" style="enable-background:new 0 0 48 48;" version="1.1" viewBox="0 0 48 48" xml:space="preserve" xmlns="http://www.w3.org/2000/svg" xmlns:xlink="http://www.w3.org/1999/xlink"><g><g><g><path d="M38,42H10c-0.6,0-1-0.4-1-1V7c0-0.6,0.4-1,1-1h28c0.6,0,1,0.4,1,1v34C39,41.6,38.6,42,38,42z M11,40h26V8H11V40z"/></g><g><path d="M32,16.2H16c-0.6,0-1-0.4-1-1s0.4-1,1-1h16c0.6,0,1,0.4,1,1S32.6,16.2,32,16.2z"/></g><g><path d="M32,21.8H16c-0.6,0-1-0.4-1-1s0.4-1,1-1h16c0.6,0,1,0.4,1,1S32.6,21.8,32,21.8z"/></g><g><path d="M32,27.4H16c-0.6,0-1-0.4-1-1s0.4-1,1-1h16c0.6,0,1,0.4,1,1S32.6,27.4,32,27.4z"/></g></g><g><path d="M24.8,33.1H16c-0.6,0-1-0.4-1-1s0.4-1,1-1h8.8c0.6,0,1,0.4,1,1S25.4,33.1,24.8,33.1z"/></g></g></svg>